<svg xmlns="http://www.w3.org/2000/svg" xmlns:svg="http://www.w3.org/2000/svg" xmlns:xlink="http://www.w3.org/1999/xlink" id="svg2" width="649.275" height="649.275" version="1.0" style="display:inline"><defs id="defs4"><linearGradient id="linearGradient3267"><stop style="stop-color:#c00;stop-opacity:1" id="stop3269" offset="0"/><stop style="stop-color:#000;stop-opacity:1" id="stop3271" offset="1"/></linearGradient><linearGradient id="linearGradient3222"><stop style="stop-color:#fff;stop-opacity:1" id="stop3224" offset="0"/><stop style="stop-color:#fff;stop-opacity:0" id="stop3226" offset="1"/></linearGradient><linearGradient id="linearGradient3190"><stop style="stop-color:#000;stop-opacity:1" id="stop3192" offset="0"/><stop id="stop3357" offset=".283" style="stop-color:#e9b96e;stop-opacity:1"/><stop style="stop-color:#fff;stop-opacity:1" id="stop3194" offset="1"/></linearGradient><linearGradient id="linearGradient3232" x1="513.71" x2="513.71" y1="332.781" y2="186.4" gradientTransform="matrix(0.2562617,0,0,0.993087,377.92221,-35.509661)" gradientUnits="userSpaceOnUse" xlink:href="#linearGradient3222"/><linearGradient id="linearGradient3238" x1="513.71" x2="513.71" y1="332.781" y2="186.4" gradientTransform="matrix(0.3492157,0,0,1.1227273,330.67641,-32.838235)" gradientUnits="userSpaceOnUse" xlink:href="#linearGradient3222"/><linearGradient id="linearGradient3242" x1="513.71" x2="513.71" y1="332.781" y2="186.4" gradientTransform="matrix(1.0983478,0,0,1.2415643,-50.085477,-25.47015)" gradientUnits="userSpaceOnUse" xlink:href="#linearGradient3222"/><linearGradient id="linearGradient3246" x1="513.71" x2="513.71" y1="332.781" y2="186.4" gradientTransform="matrix(0.3615225,0,0,0.993087,324.42126,58.119479)" gradientUnits="userSpaceOnUse" xlink:href="#linearGradient3222"/><linearGradient id="linearGradient3250" x1="513.71" x2="513.71" y1="332.781" y2="186.4" gradientTransform="matrix(0.5545005,0,0,2.2688217,226.33615,-156.18038)" gradientUnits="userSpaceOnUse" xlink:href="#linearGradient3222"/><linearGradient id="linearGradient3261" x1="513.71" x2="513.71" y1="332.781" y2="186.4" gradientTransform="matrix(0.993087,0,0,0.993087,3.4154848,11.511709)" gradientUnits="userSpaceOnUse" xlink:href="#linearGradient3222"/><linearGradient id="linearGradient3273" x1="921.635" x2="198.291" y1="761.338" y2="2.485" gradientTransform="matrix(0.993087,0,0,0.993087,-166.29014,-126.12725)" gradientUnits="userSpaceOnUse" xlink:href="#linearGradient3267"/><linearGradient id="linearGradient3297" x1="1132.072" x2="198.291" y1="853.255" y2="559.928" gradientUnits="userSpaceOnUse" xlink:href="#linearGradient3267"/><linearGradient id="linearGradient3303" x1="15986.877" x2="-1487.431" y1="646.633" y2="638.519" gradientTransform="matrix(4.6251587e-2,0,0,11.089017,174.20402,-6432.6094)" gradientUnits="userSpaceOnUse" xlink:href="#linearGradient3267"/><linearGradient id="linearGradient3315" x1="374.718" x2="233.185" y1="523.354" y2="451.65" gradientTransform="matrix(1.0391749,0,0,1,-19.855308,0)" gradientUnits="userSpaceOnUse" xlink:href="#linearGradient3267"/><linearGradient id="linearGradient3319" x1="815.385" x2="198.291" y1="765.506" y2="2.485" gradientTransform="matrix(1.0705148,0,0,1,-35.739555,0)" gradientUnits="userSpaceOnUse" xlink:href="#linearGradient3267"/><linearGradient id="linearGradient3345" x1="816.156" x2="-194.231" y1="781.996" y2="580.607" gradientUnits="userSpaceOnUse" xlink:href="#linearGradient3267"/><linearGradient id="linearGradient3369" x1="505.128" x2="505.128" y1="635.045" y2="736.752" gradientTransform="matrix(1.0235084,0,0,0.8541725,-190.56913,-21.823991)" gradientUnits="userSpaceOnUse" xlink:href="#linearGradient3190"/><linearGradient id="linearGradient3563" x1="378.149" x2="639.601" y1="443.375" y2="443.375" gradientUnits="userSpaceOnUse" xlink:href="#linearGradient3222"/><linearGradient id="linearGradient3565" x1="507.666" x2="507.666" y1="597.493" y2="472.994" gradientUnits="userSpaceOnUse" xlink:href="#linearGradient3222"/><linearGradient id="linearGradient3567" x1="455.691" x2="410.968" y1="472.39" y2="347.89" gradientUnits="userSpaceOnUse" xlink:href="#linearGradient3222"/><linearGradient id="linearGradient3569" x1="559.642" x2="603.156" y1="470.576" y2="363" gradientUnits="userSpaceOnUse" xlink:href="#linearGradient3222"/><linearGradient id="linearGradient3571" x1="598.321" x2="659.966" y1="382.339" y2="253.005" gradientUnits="userSpaceOnUse" xlink:href="#linearGradient3222"/><linearGradient id="linearGradient3573" x1="629.748" x2="736.116" y1="356.956" y2="228.831" gradientUnits="userSpaceOnUse" xlink:href="#linearGradient3222"/><linearGradient id="linearGradient3575" x1="589.86" x2="646.67" y1="335.199" y2="203.447" gradientUnits="userSpaceOnUse" xlink:href="#linearGradient3222"/><linearGradient id="linearGradient3577" x1="539.093" x2="572.938" y1="308.607" y2="186.525" gradientUnits="userSpaceOnUse" xlink:href="#linearGradient3222"/><linearGradient id="linearGradient3581" x1="477.448" x2="442.395" y1="306.189" y2="175.646" gradientUnits="userSpaceOnUse" xlink:href="#linearGradient3222"/><linearGradient id="linearGradient3583" x1="429.099" x2="381.959" y1="335.199" y2="203.447" gradientUnits="userSpaceOnUse" xlink:href="#linearGradient3222"/><linearGradient id="linearGradient3585" x1="389.211" x2="281.634" y1="355.747" y2="226.413" gradientUnits="userSpaceOnUse" xlink:href="#linearGradient3222"/><linearGradient id="linearGradient3587" x1="420.638" x2="361.41" y1="383.548" y2="250.588" gradientUnits="userSpaceOnUse" xlink:href="#linearGradient3222"/><linearGradient id="linearGradient3593" x1="378.149" x2="639.601" y1="443.375" y2="443.375" gradientUnits="userSpaceOnUse" xlink:href="#linearGradient3222"/><linearGradient id="linearGradient3595" x1="508.271" x2="508.271" y1="288.058" y2="211.908" gradientUnits="userSpaceOnUse" xlink:href="#linearGradient3222"/><linearGradient id="linearGradient3256" x1="815.385" x2="15.478" y1="641.026" y2="-106.89" gradientTransform="matrix(0.993087,0,0,0.993087,-166.29014,-126.12725)" gradientUnits="userSpaceOnUse" xlink:href="#linearGradient3267"/></defs><metadata id="metadata7"/><g id="layer8" style="display:inline"><path style="fill:url(#linearGradient3369);fill-opacity:1;stroke:none;stroke-width:1.88304722;stroke-miterlimit:4;stroke-dashoffset:0;stroke-opacity:1;display:inline" id="rect3162" d="M 24.630064,515.50168 L 628.23754,515.50168 C 621.26029,550.05795 624.04955,584.61422 628.23754,619.17049 L 24.630064,619.17049 C 17.580944,592.09497 15.873956,560.56649 24.630064,515.50168 z"/><path id="path3160" d="M 173.63421,134.33316 L 500.45318,134.33316 L 643.4577,510.46698 L 30.62968,510.46698 L 173.63421,134.33316 z" style="fill:url(#linearGradient3273);fill-opacity:1;stroke:none;stroke-width:1;stroke-miterlimit:4;stroke-dashoffset:0;stroke-opacity:1;display:inline"/><path style="fill:url(#linearGradient3256);fill-opacity:1;stroke:none;stroke-width:1;stroke-miterlimit:4;stroke-dashoffset:0;stroke-opacity:1;display:inline" id="path3249" d="M 551.76079,269.24348 C 534.7623,286.10879 510.39544,302.75747 475.51033,316.53925 C 349.82275,366.1936 272.23783,257.57471 163.61894,291.71207 C 138.0718,299.74117 118.6282,308.80629 103.81649,317.96681 L 30.638389,510.47052 L 643.46616,510.47052 L 551.76079,269.24348 z"/></g><g id="layer4" style="display:inline"><path id="path3413" d="M 165.3678,138.93096 L 493.82319,138.93096 L 634.90469,508.16772 L 26.490692,510.37212 L 165.3678,138.93096 z M 177.49199,156.56614 L 481.699,155.46394 L 607.3497,491.63473 L 51.841275,490.53253 L 177.49199,156.56614 z" style="fill:#c00;fill-opacity:1;fill-rule:evenodd;stroke:none;stroke-width:1px;stroke-linecap:butt;stroke-linejoin:miter;stroke-opacity:1"/><g id="g3409" transform="matrix(0.993087,0,0,0.993087,2.242308,2.2582496)" style="fill:#3b0000;fill-opacity:1;stroke:none;stroke-opacity:1"><path id="path3407" d="M 623.91433,523.35297 C 611.61418,555.08344 614.00931,591.56276 624.69913,625.37669 L 638.82549,623.8071 C 629.526,591.17876 627.25495,558.06025 638.82548,523.35297 L 623.91433,523.35297 z" style="fill:#3b0000;fill-opacity:1;fill-rule:evenodd;stroke:none;stroke-width:1px;stroke-linecap:butt;stroke-linejoin:miter;stroke-opacity:1"/><path style="fill:#3b0000;fill-opacity:1;fill-rule:evenodd;stroke:none;stroke-width:1px;stroke-linecap:butt;stroke-linejoin:miter;stroke-opacity:1" id="path3389" d="M 503.88181,126.52539 L 651.49477,509.43117 L 651.49477,526.07925 L 22.197437,528.29899 C 13.981701,560.48527 15.654964,588.74757 22.197437,620.93385 L 636.60671,621.39358 L 630.1379,580.31677 L 650.38489,623.74797 L 650.38489,642.15606 L 35.620779,642.15606 L 28.856668,638.15606 C 28.856668,638.15606 28.58695,642.27048 17.432876,642.27048 C 8.5880843,642.27048 6.659231,635.28618 6.659231,635.28618 C -5.9529964,595.49416 -4.7196168,557.72419 3.3296155,514.98053 L 155.38206,134.07475 C 155.38206,134.07475 156.49193,126.30565 164.26103,126.30565 C 172.03013,126.30565 174.24988,131.855 174.24988,131.855 L 179.79924,127.63526 L 503.88181,126.52539 z M 166.48078,139.84385 L 493.89297,139.84385 L 633.73682,508.3213 L 26.636924,509.43118 L 166.48078,139.84385 z"/></g><path style="fill:#000;fill-opacity:1;fill-rule:evenodd;stroke:#000;stroke-width:.99308699px;stroke-linecap:butt;stroke-linejoin:miter;stroke-opacity:1" id="path3418" d="M 25.065667,526.24208 C 16.954454,556.24872 16.484766,587.57278 24.998807,620.69665 L 623.13901,620.76351 L 619.37588,611.97306 L 30.253836,611.77822 C 21.775191,581.53166 24.546863,556.52987 31.678862,526.24208 L 25.065667,526.24208 z"/></g><g id="layer5" transform="translate(-169.70562,-129.27921)" style="display:inline"><path style="fill:#fff;fill-opacity:1;stroke:none;stroke-width:10;stroke-miterlimit:4;stroke-dasharray:none;stroke-dashoffset:0;stroke-opacity:1" id="rect3202" d="M 477.10494,298.60455 L 471.9533,345.62102 L 389.86845,345.62102 L 378.9445,393.16506 L 466.73959,393.16506 L 443.33998,607.05117 L 573.24817,607.05117 L 549.84856,393.16506 L 638.60571,393.16506 L 627.68175,345.62102 L 544.63485,345.62102 L 539.48322,298.60455 L 477.10494,298.60455 z"/></g><g id="layer9" style="opacity:.5;display:inline"><path id="path3453" d="M 300.49178,161.40247 C 298.26041,176.98489 296.90199,192.71569 295.02981,208.38789 C 267.96818,208.38789 240.90656,208.38789 213.84494,208.38789 C 209.05197,229.54341 204.14706,250.67334 199.32105,271.82133 C 228.89642,271.82133 258.47179,271.82133 288.04716,271.82133 C 280.43565,343.12907 272.34889,414.38581 264.86479,485.70744 C 314.01225,485.70744 363.15971,485.70744 412.30717,485.70744 C 404.82204,414.38705 396.72804,343.13221 389.15583,271.82133 C 419.05189,271.82133 448.94794,271.82133 478.844,271.82133 C 473.92875,250.69388 469.05106,229.55747 464.3201,208.38789 C 436.94814,208.38789 409.57618,208.38789 382.20422,208.38789 C 380.3849,192.71927 378.65212,177.04047 376.83535,161.37143 C 351.38749,161.38099 325.93959,161.34625 300.49178,161.40247 z M 307.39932,169.32534 L 369.7776,169.32534 L 374.92923,216.34181 L 457.97613,216.34181 L 468.90009,263.88585 L 380.14294,263.88585 L 403.54255,477.77196 L 273.63436,477.77196 L 297.03397,263.88585 L 209.23888,263.88585 L 220.16283,216.34181 L 302.24768,216.34181 L 307.39932,169.32534 z" style="fill:#000;fill-opacity:1;stroke:none;stroke-width:2;stroke-miterlimit:4;stroke-dasharray:none;stroke-dashoffset:0;stroke-opacity:1;display:inline"/></g><g id="layer2" transform="translate(-169.70562,-129.27921)" style="opacity:.71951222;display:inline"><path style="opacity:.8;fill:url(#linearGradient3261);fill-opacity:1;stroke:none;stroke-width:2;stroke-miterlimit:4;stroke-dashoffset:0;stroke-opacity:1" id="rect3219" d="M 304.32303,189.54503 L 712.02216,189.54503 L 627.60977,345.59361 L 388.73542,345.59361 L 304.32303,189.54503 z"/><path id="path3230" d="M 455.5701,142.52366 L 560.77509,142.52366 L 538.99284,298.57224 L 477.35235,298.57224 L 455.5701,142.52366 z" style="opacity:.8;fill:url(#linearGradient3232);fill-opacity:1;stroke:none;stroke-width:2;stroke-miterlimit:4;stroke-dashoffset:0;stroke-opacity:1"/><path style="opacity:.8;fill:url(#linearGradient3238);fill-opacity:1;stroke:none;stroke-width:2;stroke-miterlimit:4;stroke-dashoffset:0;stroke-opacity:1" id="path3234" d="M 436.48955,168.43605 L 579.85564,168.43605 L 550.17229,344.85564 L 466.1729,344.85564 L 436.48955,168.43605 z"/><path id="path3240" d="M 257.88913,197.10835 L 758.45606,197.10835 L 640.26933,392.20137 L 376.07586,392.20137 L 257.88913,197.10835 z" style="opacity:.8;fill:url(#linearGradient3242);fill-opacity:1;stroke:none;stroke-width:2;stroke-miterlimit:4;stroke-dashoffset:0;stroke-opacity:1"/><path style="opacity:1;fill:url(#linearGradient3246);fill-opacity:1;stroke:none;stroke-width:2;stroke-miterlimit:4;stroke-dashoffset:0;stroke-opacity:1" id="path3244" d="M 433.96337,236.1528 L 582.38181,236.1528 L 551.6524,392.20137 L 464.69278,392.20137 L 433.96337,236.1528 z"/><path style="opacity:1;fill:url(#linearGradient3250);fill-opacity:1;stroke:none;stroke-width:2;stroke-miterlimit:4;stroke-dashoffset:0;stroke-opacity:1" id="path3248" d="M 201.69217,250.55729 L 814.65301,250.55729 L 574.86159,607.06825 L 441.48359,607.06825 L 201.69217,250.55729 z"/></g></svg>